<?xml version="1.0" standalone="no"?>
<!DOCTYPE svg PUBLIC "-//W3C//DTD SVG 20010904//EN"
 "http://www.w3.org/TR/2001/REC-SVG-20010904/DTD/svg10.dtd">
<svg version="1.0" xmlns="http://www.w3.org/2000/svg"
 width="500.000000pt" height="500.000000pt" viewBox="0 0 500.000000 500.000000"
 preserveAspectRatio="xMidYMid meet">
<metadata>
Created by potrace 1.14, written by Peter Selinger 2001-2017
</metadata>
<g transform="translate(0.000000,500.000000) scale(0.100000,-0.100000)"
fill="#000000" stroke="none">
<path d="M0 2500 l0 -2500 2500 0 2500 0 0 2500 0 2500 -2500 0 -2500 0 0
-2500z m2776 1336 c450 -60 830 -229 1181 -529 286 -243 524 -603 654 -987 40
-117 43 -132 43 -240 1 -109 -1 -118 -31 -183 -44 -93 -119 -169 -212 -215
-73 -36 -77 -37 -190 -37 -109 0 -120 2 -181 31 -132 63 -200 148 -255 316
-41 126 -94 250 -138 322 -86 141 -234 303 -366 400 -335 245 -800 317 -1194
186 -415 -139 -719 -449 -858 -873 -22 -67 -52 -144 -67 -171 -33 -61 -124
-144 -199 -182 -55 -27 -65 -29 -178 -29 -119 0 -122 0 -196 37 -94 46 -168
122 -212 215 -60 128 -49 263 40 503 288 777 966 1320 1793 1435 131 18 431
18 566 1z m12 -1378 c131 -87 99 -336 -49 -378 -137 -40 -258 53 -259 198 0
87 45 166 115 198 48 23 145 14 193 -18z m-981 11 c120 -45 161 -219 76 -320
-41 -48 -95 -69 -185 -69 l-78 0 0 200 0 200 79 0 c44 0 92 -5 108 -11z m345
-145 c24 -22 48 -74 48 -104 0 -19 -6 -20 -85 -20 -70 0 -85 -3 -85 -16 0 -48
51 -72 84 -38 18 17 67 15 73 -3 7 -19 -45 -62 -84 -69 -47 -9 -103 15 -130
55 -45 66 -21 173 47 209 33 17 105 9 132 -14z m964 7 c39 -24 69 -95 60 -143
-11 -58 -41 -96 -87 -109 -36 -11 -46 -11 -70 4 l-29 16 0 -79 0 -80 -40 0
-40 0 0 201 0 202 49 -5 c28 -3 56 -1 63 3 22 14 61 10 94 -10z m246 1 c6 -6
6 -17 -1 -31 -10 -18 -15 -19 -36 -9 -19 8 -29 8 -36 1 -16 -16 -4 -30 41 -53
48 -25 64 -52 55 -97 -12 -68 -117 -95 -169 -44 -19 20 -19 22 -3 38 14 15 21
15 37 5 25 -15 45 -15 58 1 15 18 4 31 -45 56 -48 24 -62 55 -43 100 6 16 21
34 33 40 25 12 94 8 109 -7z m-1073 -14 c5 -13 19 -45 31 -73 l22 -50 26 73
26 72 38 0 c21 0 38 -3 38 -7 0 -3 -25 -62 -56 -130 -75 -163 -81 -163 -149
-11 -28 62 -53 120 -57 130 -6 16 -2 18 33 18 32 0 41 -4 48 -22z m121 -505
c37 -47 2 -113 -61 -113 l-29 0 0 70 0 70 34 0 c26 0 40 -7 56 -27z m108 -35
c7 -7 12 -21 12 -33 0 -12 -5 -26 -12 -33 -7 -7 -21 -12 -33 -12 -12 0 -26 5
-33 12 -13 13 -16 60 -5 71 11 11 58 8 71 -5z m92 2 c0 -5 -9 -10 -19 -10 -11
0 -21 -6 -24 -12 -7 -21 4 -38 24 -38 10 0 19 -4 19 -10 0 -14 -43 -13 -58 2
-29 29 -7 78 35 78 13 0 23 -4 23 -10z m65 0 c-4 -6 -11 -8 -16 -5 -5 4 -9 2
-9 -3 0 -6 7 -12 15 -16 8 -3 15 -15 15 -26 0 -24 -22 -36 -47 -24 -15 6 -14
8 6 12 l25 4 -24 18 c-29 22 -21 50 15 50 15 0 24 -4 20 -10z"/>
<path d="M2640 2406 c-91 -30 -109 -183 -28 -240 38 -27 103 -21 140 13 28 25
32 35 36 93 4 61 2 68 -24 97 -36 39 -78 52 -124 37z"/>
<path d="M1700 2280 l0 -130 30 0 c93 0 146 98 106 194 -18 44 -51 66 -98 66
l-38 0 0 -130z"/>
<path d="M2047 2282 c-28 -31 -21 -42 27 -42 52 0 61 9 40 38 -19 27 -45 28
-67 4z"/>
<path d="M2996 2258 c-34 -49 -8 -118 44 -118 35 0 60 31 60 76 0 59 -72 88
-104 42z"/>
<path d="M2350 1770 c0 -27 4 -50 9 -50 16 0 41 31 41 50 0 19 -25 50 -41 50
-5 0 -9 -22 -9 -50z"/>
<path d="M2464 1755 c-7 -18 3 -35 21 -35 15 0 24 19 18 38 -6 17 -32 15 -39
-3z"/>
</g>
</svg>
