<?xml version="1.0" encoding="utf-8"?>
<!-- Generator: Adobe Illustrator 21.0.0, SVG Export Plug-In . SVG Version: 6.00 Build 0)  -->
<svg version="1.1" id="Layer_1" xmlns="http://www.w3.org/2000/svg" xmlns:xlink="http://www.w3.org/1999/xlink" x="0px" y="0px"
	 viewBox="0 0 319.2 319.4" style="enable-background:new 0 0 319.2 319.4;" xml:space="preserve">
<style type="text/css">
	.st0{fill-rule:evenodd;clip-rule:evenodd;}
	.st1{fill:none;stroke:#FFFFFF;stroke-width:0.5669;stroke-miterlimit:22.9256;}
</style>
<path class="st0" d="M194,225c-10.2,5.4-21.9,8.5-34.3,8.5c-12.4,0-24-3.1-34.3-8.5l-42.2,43.1l-13.1,13.4
	c26,19.2,57.3,29.4,89.6,29.4s63.6-10.2,89.6-29.4l-13.1-13.4L194,225z"/>
<path class="st0" d="M267,49.5c0.5,0.5,1.1,1,1.6,1.5c27.8,27.8,45.1,66.3,45.1,108.8c0,42.5-17.2,81-45.1,108.8
	c-5.4,5.4-11.1,10.3-17.2,14.8c-25.6,19-57.3,30.2-91.6,30.2c-34.3,0-66-11.2-91.6-30.2C62,279,56.2,274,50.9,268.7
	c-0.5-0.5-1-1-1.5-1.6l-4,4c29,29.8,69.5,48.3,114.3,48.3c88.1,0,159.5-71.4,159.5-159.5c0-44.8-18.5-85.3-48.3-114.3L267,49.5z"/>
<path class="st0" d="M260.7,245.7c19.7-23.1,31.6-53.1,31.6-85.9c0-36.6-14.8-69.7-38.8-93.7l-41.7,41.7L191.6,128
	c8.2,8.2,13.2,19.4,13.2,31.8c0,10.1-3.3,19.7-9.5,27.6l35,34.6l3.7-3.7L260.7,245.7z"/>
<path class="st0" d="M159.7,202.1c-13.9,0-26.2-6.7-33.8-17l59.1-59.1c10.3,7.7,17,20,17,33.8c0,10.7-3.9,20.4-10.5,27.8l38.8,38.4
	l3.7-3.7l24.8,25.4l-11.2,11.2l-24.8-25.4l3.7-3.7l-38.8-38.4C180.2,198.1,170.4,202.1,159.7,202.1z"/>
<path class="st1" d="M159.7,202.1c-13.9,0-26.2-6.7-33.8-17l59.1-59.1c10.3,7.7,17,20,17,33.8c0,10.7-3.9,20.4-10.5,27.8l38.8,38.4
	l3.7-3.7l24.8,25.4l-11.2,11.2l-24.8-25.4l3.7-3.7l-38.8-38.4C180.2,198.1,170.4,202.1,159.7,202.1z"/>
<path class="st0" d="M33.2,256.8c31.8-21.4,52.6-56.7,52.6-96.6c0-40.2-21.1-75.8-53.4-97.1C12.1,89.8,0,123.2,0,159.4
	C0,196.1,12.4,229.9,33.2,256.8"/>
<path class="st0" d="M62,33.2c21.4,31.8,56.7,52.6,96.7,52.6c40.3,0,75.8-21.2,97.2-53.5C230.4,13,199,1.1,164.8,0h-10.6
	C119.5,1.1,87.7,13.3,62,33.2"/>
<path class="st0" d="M92.3,234.1l25.6-26l-7.5-7.5l-25.6,26l2.5,2.5l-41.9,41.7c0.8,0.9,1.7,1.7,2.6,2.6l41.9-41.7L92.3,234.1z"/>
<path class="st0" d="M84.7,92.2l25.6,26l7.5-7.5l-25.6-26l-2.5,2.5L47.9,45.5c-0.9,0.9-1.7,1.7-2.6,2.6l41.9,41.7L84.7,92.2z"/>
<path class="st0" d="M201.7,159.4c0-23.3-18.9-42.2-42.2-42.2s-42.2,18.9-42.2,42.2s18.9,42.2,42.2,42.2S201.7,182.7,201.7,159.4"/>
</svg>
